solid exported
	facet normal 0.24642941944928853 0.941904454127969 -0.22822914039136047
		outer loop
			vertex 0 -33.07363510131836 7
			vertex 0 -34.03478240966797 3.0333333015441895
			vertex -22.756319046020508 -27.119924545288086 7
		endloop
	endfacet
	facet normal 0.2496267575904904 0.9443612051984801 -0.21416908276157176
		outer loop
			vertex 0 -34.03478240966797 3.0333333015441895
			vertex -23.37413215637207 -27.856204986572266 3.0333333015441895
			vertex -22.756319046020508 -27.119924545288086 7
		endloop
	endfacet
	facet normal 0.24871639298694825 0.9409172113635665 -0.22981505002799915
		outer loop
			vertex 0 -34.03478240966797 3.0333333015441895
			vertex 0 -35.003623962402344 -0.9333333373069763
			vertex -23.37413215637207 -27.856204986572266 3.0333333015441895
		endloop
	endfacet
	facet normal 0.2518005695051884 0.9433577243415395 -0.21603860099994884
		outer loop
			vertex 0 -35.003623962402344 -0.9333333373069763
			vertex -23.99689483642578 -28.598384857177734 -0.9333333373069763
			vertex -23.37413215637207 -27.856204986572266 3.0333333015441895
		endloop
	endfacet
	facet normal 0.25089150049271186 0.9399519446144942 -0.23139532578672906
		outer loop
			vertex 0 -35.003623962402344 -0.9333333373069763
			vertex 0 -35.98012924194336 -4.899999618530273
			vertex -23.99689483642578 -28.598384857177734 -0.9333333373069763
		endloop
	endfacet
	facet normal 0.2538700933805109 0.9423770119066767 -0.21788883201489345
		outer loop
			vertex 0 -35.98012924194336 -4.899999618530273
			vertex -24.62457847595215 -29.346431732177734 -4.899999618530273
			vertex -23.99689483642578 -28.598384857177734 -0.9333333373069763
		endloop
	endfacet
	facet normal 0.9691760246021758 0.16626051472287173 -0.18181109586713556
		outer loop
			vertex -22.756319046020508 -27.119924545288086 7
			vertex -23.37413215637207 -27.856204986572266 3.0333333015441895
			vertex -26.60396385192871 -4.6909966468811035 7
		endloop
	endfacet
	facet normal 0.956238099624364 0.1736480918880624 -0.23548893182147634
		outer loop
			vertex -23.37413215637207 -27.856204986572266 3.0333333015441895
			vertex -27.55051040649414 -4.857898712158203 3.0333333015441895
			vertex -26.60396385192871 -4.6909966468811035 7
		endloop
	endfacet
	facet normal 0.9669856509524554 0.17559979385572633 -0.18467123016291076
		outer loop
			vertex -23.37413215637207 -27.856204986572266 3.0333333015441895
			vertex -23.99689483642578 -28.598384857177734 -0.9333333373069763
			vertex -27.55051040649414 -4.857898712158203 3.0333333015441895
		endloop
	endfacet
	facet normal 0.9541594321784144 0.18246459429588072 -0.2372476550219321
		outer loop
			vertex -23.99689483642578 -28.598384857177734 -0.9333333373069763
			vertex -28.5046329498291 -5.0261359214782715 -0.9333333373069763
			vertex -27.55051040649414 -4.857898712158203 3.0333333015441895
		endloop
	endfacet
	facet normal 0.9647896458395004 0.18449741769785694 -0.1874610416692335
		outer loop
			vertex -23.99689483642578 -28.598384857177734 -0.9333333373069763
			vertex -24.62457847595215 -29.346431732177734 -4.899999618530273
			vertex -28.5046329498291 -5.0261359214782715 -0.9333333373069763
		endloop
	endfacet
	facet normal 0.9520801700585888 0.1908724211979901 -0.23897922212448927
		outer loop
			vertex -24.62457847595215 -29.346431732177734 -4.899999618530273
			vertex -29.46630096435547 -5.195703506469727 -4.899999618530273
			vertex -28.5046329498291 -5.0261359214782715 -0.9333333373069763
		endloop
	endfacet
	facet normal 0.9675915010658132 0.09292417123419941 -0.23480158744276816
		outer loop
			vertex -26.60396385192871 -4.6909966468811035 7
			vertex -27.55051040649414 -4.857898712158203 3.0333333015441895
			vertex -28.642610549926758 16.536819458007812 7
		endloop
	endfacet
	facet normal 0.977104133964524 0.0859605613471389 -0.19462346539490674
		outer loop
			vertex -27.55051040649414 -4.857898712158203 3.0333333015441895
			vertex -29.474985122680664 17.017391204833984 3.0333333015441895
			vertex -28.642610549926758 16.536819458007812 7
		endloop
	endfacet
	facet normal 0.967910625976621 0.08515176412694594 -0.23642799577802748
		outer loop
			vertex -27.55051040649414 -4.857898712158203 3.0333333015441895
			vertex -28.5046329498291 -5.0261359214782715 -0.9333333373069763
			vertex -29.474985122680664 17.017391204833984 3.0333333015441895
		endloop
	endfacet
	facet normal 0.977231981912332 0.07848910649566972 -0.19712207813739982
		outer loop
			vertex -28.5046329498291 -5.0261359214782715 -0.9333333373069763
			vertex -30.314027786254883 17.501811981201172 -0.9333333373069763
			vertex -29.474985122680664 17.017391204833984 3.0333333015441895
		endloop
	endfacet
	facet normal 0.9681384168436374 0.07775873150762916 -0.2380369414729991
		outer loop
			vertex -28.5046329498291 -5.0261359214782715 -0.9333333373069763
			vertex -29.46630096435547 -5.195703506469727 -4.899999618530273
			vertex -30.314027786254883 17.501811981201172 -0.9333333373069763
		endloop
	endfacet
	facet normal 0.9772811902997595 0.07137703029791462 -0.19956651681115237
		outer loop
			vertex -29.46630096435547 -5.195703506469727 -4.899999618530273
			vertex -31.159704208374023 17.990062713623047 -4.899999618530273
			vertex -30.314027786254883 17.501811981201172 -0.9333333373069763
		endloop
	endfacet
	facet normal 0.6924985679409983 -0.6843665648828312 -0.22822825914014327
		outer loop
			vertex -28.642610549926758 16.536819458007812 7
			vertex -29.474985122680664 17.017391204833984 3.0333333015441895
			vertex -12.10838508605957 33.267513275146484 7
		endloop
	endfacet
	facet normal 0.6930274426876885 -0.6883634245624507 -0.21416993114444902
		outer loop
			vertex -29.474985122680664 17.017391204833984 3.0333333015441895
			vertex -12.437116622924805 34.17070007324219 3.0333333015441895
			vertex -12.10838508605957 33.267513275146484 7
		endloop
	endfacet
	facet normal 0.6905001330094335 -0.6858531234720545 -0.22981527220265738
		outer loop
			vertex -29.474985122680664 17.017391204833984 3.0333333015441895
			vertex -30.314027786254883 17.501811981201172 -0.9333333373069763
			vertex -12.437116622924805 34.17070007324219 3.0333333015441895
		endloop
	endfacet
	facet normal 0.6910716390210375 -0.6897446991988994 -0.2160375885530034
		outer loop
			vertex -30.314027786254883 17.501811981201172 -0.9333333373069763
			vertex -12.768482208251953 35.081111907958984 -0.9333333373069763
			vertex -12.437116622924805 34.17070007324219 3.0333333015441895
		endloop
	endfacet
	facet normal 0.6885766297884162 -0.6872544806810469 -0.23139469244788494
		outer loop
			vertex -30.314027786254883 17.501811981201172 -0.9333333373069763
			vertex -31.159704208374023 17.990062713623047 -4.899999618530273
			vertex -12.768482208251953 35.081111907958984 -0.9333333373069763
		endloop
	endfacet
	facet normal 0.6891874900650281 -0.6910464962464166 -0.21788837408962047
		outer loop
			vertex -31.159704208374023 17.990062713623047 -4.899999618530273
			vertex -13.10246467590332 35.99872589111328 -4.899999618530273
			vertex -12.768482208251953 35.081111907958984 -0.9333333373069763
		endloop
	endfacet
	facet normal -0.3406021602153236 -0.9224611241337356 -0.18181210883376256
		outer loop
			vertex -12.10838508605957 33.267513275146484 7
			vertex -12.437116622924805 34.17070007324219 3.0333333015441895
			vertex 9.239459037780762 25.38520622253418 7
		endloop
	endfacet
	facet normal -0.3277354366931366 -0.9149503490450929 -0.23548958006209458
		outer loop
			vertex -12.437116622924805 34.17070007324219 3.0333333015441895
			vertex 9.568192481994629 26.288393020629883 3.0333333015441895
			vertex 9.239459037780762 25.38520622253418 7
		endloop
	endfacet
	facet normal -0.33141913690763974 -0.9252342622863482 -0.18466974734057634
		outer loop
			vertex -12.437116622924805 34.17070007324219 3.0333333015441895
			vertex -12.768482208251953 35.081111907958984 -0.9333333373069763
			vertex 9.568192481994629 26.288393020629883 3.0333333015441895
		endloop
	endfacet
	facet normal -0.3190607836182277 -0.9175587784381544 -0.23724692720455767
		outer loop
			vertex -12.768482208251953 35.081111907958984 -0.9333333373069763
			vertex 9.899555206298828 27.198802947998047 -0.9333333373069763
			vertex 9.568192481994629 26.288393020629883 3.0333333015441895
		endloop
	endfacet
	facet normal -0.322615330686276 -0.9277809869736976 -0.18746143234355325
		outer loop
			vertex -12.768482208251953 35.081111907958984 -0.9333333373069763
			vertex -13.10246467590332 35.99872589111328 -4.899999618530273
			vertex 9.899555206298828 27.198802947998047 -0.9333333373069763
		endloop
	endfacet
	facet normal -0.3107396932721889 -0.919961757641815 -0.23897951272376625
		outer loop
			vertex -13.10246467590332 35.99872589111328 -4.899999618530273
			vertex 10.233539581298828 28.116416931152344 -4.899999618530273
			vertex 9.899555206298828 27.198802947998047 -0.9333333373069763
		endloop
	endfacet
	facet normal -0.4033210716918545 -0.8844207249173731 -0.2348022454448904
		outer loop
			vertex 9.239459037780762 25.38520622253418 7
			vertex 9.568192481994629 26.288393020629883 3.0333333015441895
			vertex 28.642606735229492 16.53681755065918 7
		endloop
	endfacet
	facet normal -0.41410782538664076 -0.8891770328939549 -0.19462505780975423
		outer loop
			vertex 9.568192481994629 26.288393020629883 3.0333333015441895
			vertex 29.47498893737793 17.017393112182617 3.0333333015441895
			vertex 28.642606735229492 16.53681755065918 7
		endloop
	endfacet
	facet normal -0.41021171824423625 -0.8808112673219431 -0.23642727755871193
		outer loop
			vertex 9.568192481994629 26.288393020629883 3.0333333015441895
			vertex 9.899555206298828 27.198802947998047 -0.9333333373069763
			vertex 29.47498893737793 17.017393112182617 3.0333333015441895
		endloop
	endfacet
	facet normal -0.42064242814020625 -0.8855524509561001 -0.19712129325355865
		outer loop
			vertex 9.899555206298828 27.198802947998047 -0.9333333373069763
			vertex 30.314029693603516 17.501811981201172 -0.9333333373069763
			vertex 29.47498893737793 17.017393112182617 3.0333333015441895
		endloop
	endfacet
	facet normal -0.4167280718939806 -0.8773117991914021 -0.23803722627998872
		outer loop
			vertex 9.899555206298828 27.198802947998047 -0.9333333373069763
			vertex 10.233539581298828 28.116416931152344 -4.899999618530273
			vertex 30.314029693603516 17.501811981201172 -0.9333333373069763
		endloop
	endfacet
	facet normal -0.42682624429350596 -0.8820388607517022 -0.19956654355412265
		outer loop
			vertex 10.233539581298828 28.116416931152344 -4.899999618530273
			vertex 31.159704208374023 17.99006462097168 -4.899999618530273
			vertex 30.314029693603516 17.501811981201172 -0.9333333373069763
		endloop
	endfacet
	facet normal -0.9389276684842289 -0.25753797536269296 -0.22823020089562016
		outer loop
			vertex 28.642606735229492 16.53681755065918 7
			vertex 29.47498893737793 17.017393112182617 3.0333333015441895
			vertex 34.86470031738281 -6.147587776184082 7
		endloop
	endfacet
	facet normal -0.942653986985906 -0.25599736696908026 -0.21417004674901174
		outer loop
			vertex 29.47498893737793 17.017393112182617 3.0333333015441895
			vertex 35.811248779296875 -6.314489841461182 3.0333333015441895
			vertex 34.86470031738281 -6.147587776184082 7
		endloop
	endfacet
	facet normal -0.9392164825839845 -0.25506384089484146 -0.22981478610076192
		outer loop
			vertex 29.47498893737793 17.017393112182617 3.0333333015441895
			vertex 30.314029693603516 17.501811981201172 -0.9333333373069763
			vertex 35.811248779296875 -6.314489841461182 3.0333333015441895
		endloop
	endfacet
	facet normal -0.9428722284001869 -0.2536130733306035 -0.21603789007364363
		outer loop
			vertex 30.314029693603516 17.501811981201172 -0.9333333373069763
			vertex 36.76537322998047 -6.48272705078125 -0.9333333373069763
			vertex 35.811248779296875 -6.314489841461182 3.0333333015441895
		endloop
	endfacet
	facet normal -0.9394682510388289 -0.25269747402227877 -0.23139445091186547
		outer loop
			vertex 30.314029693603516 17.501811981201172 -0.9333333373069763
			vertex 31.159704208374023 17.99006462097168 -4.899999618530273
			vertex 36.76537322998047 -6.48272705078125 -0.9333333373069763
		endloop
	endfacet
	facet normal -0.9430572604380452 -0.2513306443457925 -0.2178896756338354
		outer loop
			vertex 31.159704208374023 17.99006462097168 -4.899999618530273
			vertex 37.727046966552734 -6.6522955894470215 -4.899999618530273
			vertex 36.76537322998047 -6.48272705078125 -0.9333333373069763
		endloop
	endfacet
	facet normal -0.628573809516687 0.7562006454327981 -0.18181185284986123
		outer loop
			vertex 34.86470031738281 -6.147587776184082 7
			vertex 35.811248779296875 -6.314489841461182 3.0333333015441895
			vertex 17.364503860473633 -20.694210052490234 7
		endloop
	endfacet
	facet normal -0.6285026511282961 0.741302275698443 -0.2354896039510305
		outer loop
			vertex 35.811248779296875 -6.314489841461182 3.0333333015441895
			vertex 17.98232078552246 -21.43049430847168 3.0333333015441895
			vertex 17.364503860473633 -20.694210052490234 7
		endloop
	endfacet
	facet normal -0.6355668466700286 0.7496343077458243 -0.18467048509265185
		outer loop
			vertex 35.811248779296875 -6.314489841461182 3.0333333015441895
			vertex 36.76537322998047 -6.48272705078125 -0.9333333373069763
			vertex 17.98232078552246 -21.43049430847168 3.0333333015441895
		endloop
	endfacet
	facet normal -0.6350988321516076 0.7350938759365349 -0.23724769115897987
		outer loop
			vertex 36.76537322998047 -6.48272705078125 -0.9333333373069763
			vertex 18.605079650878906 -22.172670364379883 -0.9333333373069763
			vertex 17.98232078552246 -21.43049430847168 3.0333333015441895
		endloop
	endfacet
	facet normal -0.6421742901296634 0.7432833506541858 -0.18746210746908162
		outer loop
			vertex 36.76537322998047 -6.48272705078125 -0.9333333373069763
			vertex 37.727046966552734 -6.6522955894470215 -4.899999618530273
			vertex 18.605079650878906 -22.172670364379883 -0.9333333373069763
		endloop
	endfacet
	facet normal -0.6413404995110066 0.7290896917558208 -0.23897821043428827
		outer loop
			vertex 37.727046966552734 -6.6522955894470215 -4.899999618530273
			vertex 19.23276138305664 -22.920711517333984 -4.899999618530273
			vertex 18.605079650878906 -22.172670364379883 -0.9333333373069763
		endloop
	endfacet
	facet normal -0.5642702825979555 0.7914966536713495 -0.23480224744213937
		outer loop
			vertex 17.364503860473633 -20.694210052490234 7
			vertex 17.98232078552246 -21.43049430847168 3.0333333015441895
			vertex 8.100704623151961e-15 -33.07363510131836 7
		endloop
	endfacet
	facet normal -0.5629959542027724 0.8032166329540407 -0.19462424334415324
		outer loop
			vertex 17.98232078552246 -21.43049430847168 3.0333333015441895
			vertex 8.336117949083507e-15 -34.03478240966797 3.0333333015441895
			vertex 8.100704623151961e-15 -33.07363510131836 7
		endloop
	endfacet
	facet normal -0.5576988445488548 0.7956593378281228 -0.23642803749933236
		outer loop
			vertex 17.98232078552246 -21.43049430847168 3.0333333015441895
			vertex 18.605079650878906 -22.172670364379883 -0.9333333373069763
			vertex 8.336117949083507e-15 -34.03478240966797 3.0333333015441895
		endloop
	endfacet
	facet normal -0.5565894790292257 0.8070632873129504 -0.197121795105436
		outer loop
			vertex 18.605079650878906 -22.172670364379883 -0.9333333373069763
			vertex 8.573415076289746e-15 -35.003623962402344 -0.9333333373069763
			vertex 8.336117949083507e-15 -34.03478240966797 3.0333333015441895
		endloop
	endfacet
	facet normal -0.5514102862044665 0.7995533782250743 -0.238035904091756
		outer loop
			vertex 18.605079650878906 -22.172670364379883 -0.9333333373069763
			vertex 19.23276138305664 -22.920711517333984 -4.899999618530273
			vertex 8.573415076289746e-15 -35.003623962402344 -0.9333333373069763
		endloop
	endfacet
	facet normal -0.5504549872859782 0.8106616731184587 -0.1995669278933136
		outer loop
			vertex 19.23276138305664 -22.920711517333984 -4.899999618530273
			vertex 8.812590075540049e-15 -35.98012924194336 -4.899999618530273
			vertex 8.573415076289746e-15 -35.003623962402344 -0.9333333373069763
		endloop
	endfacet
	facet normal 0.5043083506843545 -0.7537334542116154 0.42137746431466006
		outer loop
			vertex 0 -36.95476150512695 7
			vertex 0 -39.56367874145508 2.3333332538604736
			vertex 19.85924530029297 -23.667327880859375 7
		endloop
	endfacet
	facet normal 0.4741622396267679 -0.7347680817371535 0.48506292022007963
		outer loop
			vertex 0 -39.56367874145508 2.3333332538604736
			vertex 21.536224365234375 -25.66587257385254 2.3333332538604736
			vertex 19.85924530029297 -23.667327880859375 7
		endloop
	endfacet
	facet normal 0.4335783090390716 -0.6718786857980172 0.6004905340645668
		outer loop
			vertex 0 -39.56367874145508 2.3333332538604736
			vertex 0 -43.73450469970703 -2.3333332538604736
			vertex 21.536224365234375 -25.66587257385254 2.3333332538604736
		endloop
	endfacet
	facet normal 0.3920948518313296 -0.6384085484541235 0.6623414168146718
		outer loop
			vertex 0 -43.73450469970703 -2.3333332538604736
			vertex 24.217178344726562 -28.86090850830078 -2.3333332538604736
			vertex 21.536224365234375 -25.66587257385254 2.3333332538604736
		endloop
	endfacet
	facet normal 0.4724773739433029 -0.7692873116485502 0.4300722767723894
		outer loop
			vertex 0 -43.73450469970703 -2.3333332538604736
			vertex 0 -46.34341812133789 -7
			vertex 24.217178344726562 -28.86090850830078 -2.3333332538604736
		endloop
	endfacet
	facet normal 0.44931021496142226 -0.7513909341196229 0.4832514819989293
		outer loop
			vertex 0 -46.34341812133789 -7
			vertex 25.89415740966797 -30.859455108642578 -7
			vertex 24.217178344726562 -28.86090850830078 -2.3333332538604736
		endloop
	endfacet
	facet normal 0.5820875577513068 -0.6505677141753478 0.4877865561736834
		outer loop
			vertex 19.85924530029297 -23.667327880859375 7
			vertex 21.536224365234375 -25.66587257385254 2.3333332538604736
			vertex 38.68687057495117 -6.821538925170898 7
		endloop
	endfacet
	facet normal 0.622781461730376 -0.66777245418211 0.4077047956065494
		outer loop
			vertex 21.536224365234375 -25.66587257385254 2.3333332538604736
			vertex 41.25614929199219 -7.274572372436523 2.3333332538604736
			vertex 38.68687057495117 -6.821538925170898 7
		endloop
	endfacet
	facet normal 0.5088455473399645 -0.5456055788859616 0.6658759353218936
		outer loop
			vertex 21.536224365234375 -25.66587257385254 2.3333332538604736
			vertex 24.217178344726562 -28.86090850830078 -2.3333332538604736
			vertex 41.25614929199219 -7.274572372436523 2.3333332538604736
		endloop
	endfacet
	facet normal 0.567612513323241 -0.5753490783275148 0.5888883364327678
		outer loop
			vertex 24.217178344726562 -28.86090850830078 -2.3333332538604736
			vertex 45.363609313964844 -7.998827934265137 -2.3333332538604736
			vertex 41.25614929199219 -7.274572372436523 2.3333332538604736
		endloop
	endfacet
	facet normal 0.613484416252896 -0.6218462158151735 0.4867690981268143
		outer loop
			vertex 24.217178344726562 -28.86090850830078 -2.3333332538604736
			vertex 25.89415740966797 -30.859455108642578 -7
			vertex 45.363609313964844 -7.998827934265137 -2.3333332538604736
		endloop
	endfacet
	facet normal 0.647562233751933 -0.6369025108927496 0.4183519392051599
		outer loop
			vertex 25.89415740966797 -30.859455108642578 -7
			vertex 47.932891845703125 -8.451862335205078 -7
			vertex 45.363609313964844 -7.998827934265137 -2.3333332538604736
		endloop
	endfacet
	facet normal 0.8621589309197869 0.22775290124771844 0.45256004442338604
		outer loop
			vertex 38.68687057495117 -6.821538925170898 7
			vertex 41.25614929199219 -7.274572372436523 2.3333332538604736
			vertex 32.003761291503906 18.477380752563477 7
		endloop
	endfacet
	facet normal 0.8523741178074296 0.22030462533685619 0.4742617793446925
		outer loop
			vertex 41.25614929199219 -7.274572372436523 2.3333332538604736
			vertex 34.26314926147461 19.781837463378906 2.3333332538604736
			vertex 32.003761291503906 18.477380752563477 7
		endloop
	endfacet
	facet normal 0.7511160965400897 0.19413347587136698 0.6309808262257104
		outer loop
			vertex 41.25614929199219 -7.274572372436523 2.3333332538604736
			vertex 45.363609313964844 -7.998827934265137 -2.3333332538604736
			vertex 34.26314926147461 19.781837463378906 2.3333332538604736
		endloop
	endfacet
	facet normal 0.7356201479366263 0.184444422648228 0.6518000098984795
		outer loop
			vertex 45.363609313964844 -7.998827934265137 -2.3333332538604736
			vertex 37.87519073486328 21.867250442504883 -2.3333332538604736
			vertex 34.26314926147461 19.781837463378906 2.3333332538604736
		endloop
	endfacet
	facet normal 0.86394119346082 0.21661877407364039 0.4546228337427932
		outer loop
			vertex 45.363609313964844 -7.998827934265137 -2.3333332538604736
			vertex 47.932891845703125 -8.451862335205078 -7
			vertex 37.87519073486328 21.867250442504883 -2.3333332538604736
		endloop
	endfacet
	facet normal 0.8553843519216549 0.21093627318725744 0.47309988283811816
		outer loop
			vertex 47.932891845703125 -8.451862335205078 -7
			vertex 40.13457489013672 23.171709060668945 -7
			vertex 37.87519073486328 21.867250442504883 -2.3333332538604736
		endloop
	endfacet
	facet normal 0.400598184178709 0.8136107188846153 0.4213771386166799
		outer loop
			vertex 32.003761291503906 18.477380752563477 7
			vertex 34.26314926147461 19.781837463378906 2.3333332538604736
			vertex 10.566883087158203 29.03227424621582 7
		endloop
	endfacet
	facet normal 0.39924672292535884 0.7780202685915136 0.4850634143018324
		outer loop
			vertex 34.26314926147461 19.781837463378906 2.3333332538604736
			vertex 11.459185600280762 31.483856201171875 2.3333332538604736
			vertex 10.566883087158203 29.03227424621582 7
		endloop
	endfacet
	facet normal 0.36507496684573143 0.7114290674201873 0.6004905916100857
		outer loop
			vertex 34.26314926147461 19.781837463378906 2.3333332538604736
			vertex 37.87519073486328 21.867250442504883 -2.3333332538604736
			vertex 11.459185600280762 31.483856201171875 2.3333332538604736
		endloop
	endfacet
	facet normal 0.35683075055016183 0.658768589478092 0.662341121310502
		outer loop
			vertex 37.87519073486328 21.867250442504883 -2.3333332538604736
			vertex 12.885690689086914 35.40314483642578 -2.3333332538604736
			vertex 11.459185600280762 31.483856201171875 2.3333332538604736
		endloop
	endfacet
	facet normal 0.4299836623751175 0.7938209650506587 0.4300724654480014
		outer loop
			vertex 37.87519073486328 21.867250442504883 -2.3333332538604736
			vertex 40.13457489013672 23.171709060668945 -7
			vertex 12.885690689086914 35.40314483642578 -2.3333332538604736
		endloop
	endfacet
	facet normal 0.4260685332875604 0.7648095076203438 0.4832515100811524
		outer loop
			vertex 40.13457489013672 23.171709060668945 -7
			vertex 13.777993202209473 37.8547248840332 -7
			vertex 12.885690689086914 35.40314483642578 -2.3333332538604736
		endloop
	endfacet
	facet normal 0.2723643205144695 0.8293862005555367 0.48778705111835663
		outer loop
			vertex 10.566883087158203 29.03227424621582 7
			vertex 11.459185600280762 31.483856201171875 2.3333332538604736
			vertex -13.435808181762695 36.914581298828125 7
		endloop
	endfacet
	facet normal 0.26691706338222126 0.8732309076321998 0.4077046274341952
		outer loop
			vertex 11.459185600280762 31.483856201171875 2.3333332538604736
			vertex -14.328109741210938 39.36615753173828 2.3333332538604736
			vertex -13.435808181762695 36.914581298828125 7
		endloop
	endfacet
	facet normal 0.218085487962405 0.7134762618083966 0.6658756218514956
		outer loop
			vertex 11.459185600280762 31.483856201171875 2.3333332538604736
			vertex 12.885690689086914 35.40314483642578 -2.3333332538604736
			vertex -14.328109741210938 39.36615753173828 2.3333332538604736
		endloop
	endfacet
	facet normal 0.21446065941826864 0.7792411401715762 0.5888886745608065
		outer loop
			vertex 12.885690689086914 35.40314483642578 -2.3333332538604736
			vertex -15.754617691040039 43.28545379638672 -2.3333332538604736
			vertex -14.328109741210938 39.36615753173828 2.3333332538604736
		endloop
	endfacet
	facet normal 0.23179247521425772 0.8422161582412996 0.48676913545469797
		outer loop
			vertex 12.885690689086914 35.40314483642578 -2.3333332538604736
			vertex 13.777993202209473 37.8547248840332 -7
			vertex -15.754617691040039 43.28545379638672 -2.3333332538604736
		endloop
	endfacet
	facet normal 0.22779269102965957 0.8792566641508768 0.41835177597297013
		outer loop
			vertex 13.777993202209473 37.8547248840332 -7
			vertex -16.64691925048828 45.73703384399414 -7
			vertex -15.754617691040039 43.28545379638672 -2.3333332538604736
		endloop
	endfacet
	facet normal -0.6283191666426079 0.6327751977174574 0.452560022519855
		outer loop
			vertex -13.435808181762695 36.914581298828125 7
			vertex -14.328109741210938 39.36615753173828 2.3333332538604736
			vertex -32.00376510620117 18.477380752563477 7
		endloop
	endfacet
	facet normal -0.6169763133728313 0.6280254151619165 0.474261854514542
		outer loop
			vertex -14.328109741210938 39.36615753173828 2.3333332538604736
			vertex -34.263153076171875 19.78183937072754 2.3333332538604736
			vertex -32.00376510620117 18.477380752563477 7
		endloop
	endfacet
	facet normal -0.5436822272087452 0.5534187440557312 0.6309812434178338
		outer loop
			vertex -14.328109741210938 39.36615753173828 2.3333332538604736
			vertex -15.754617691040039 43.28545379638672 -2.3333332538604736
			vertex -34.263153076171875 19.78183937072754 2.3333332538604736
		endloop
	endfacet
	facet normal -0.5275438014685454 0.5448436566129137 0.6517997601877323
		outer loop
			vertex -15.754617691040039 43.28545379638672 -2.3333332538604736
			vertex -37.87519073486328 21.867252349853516 -2.3333332538604736
			vertex -34.263153076171875 19.78183937072754 2.3333332538604736
		endloop
	endfacet
	facet normal -0.6195680444306617 0.6398856699830662 0.45462266515285854
		outer loop
			vertex -15.754617691040039 43.28545379638672 -2.3333332538604736
			vertex -16.64691925048828 45.73703384399414 -7
			vertex -37.87519073486328 21.867252349853516 -2.3333332538604736
		endloop
	endfacet
	facet normal -0.6103680684915417 0.6353162954206415 0.47310043937719715
		outer loop
			vertex -16.64691925048828 45.73703384399414 -7
			vertex -40.134578704833984 23.171710968017578 -7
			vertex -37.87519073486328 21.867252349853516 -2.3333332538604736
		endloop
	endfacet
	facet normal -0.9049065496864559 -0.05987728193051684 0.4213773219374383
		outer loop
			vertex -32.00376510620117 18.477380752563477 7
			vertex -34.263153076171875 19.78183937072754 2.3333332538604736
			vertex -30.426128387451172 -5.364947319030762 7
		endloop
	endfacet
	facet normal -0.873408742047517 -0.04325253287013644 0.48506328217593603
		outer loop
			vertex -34.263153076171875 19.78183937072754 2.3333332538604736
			vertex -32.99541091918945 -5.817981243133545 2.3333332538604736
			vertex -30.426128387451172 -5.364947319030762 7
		endloop
	endfacet
	facet normal -0.7986534646503352 -0.03955053753029374 0.6004901317949204
		outer loop
			vertex -34.263153076171875 19.78183937072754 2.3333332538604736
			vertex -37.87519073486328 21.867252349853516 -2.3333332538604736
			vertex -32.99541091918945 -5.817981243133545 2.3333332538604736
		endloop
	endfacet
	facet normal -0.7489256910682148 -0.020359851914128865 0.6623411399634116
		outer loop
			vertex -37.87519073486328 21.867252349853516 -2.3333332538604736
			vertex -37.102867126464844 -6.542236804962158 -2.3333332538604736
			vertex -32.99541091918945 -5.817981243133545 2.3333332538604736
		endloop
	endfacet
	facet normal -0.9024608468971772 -0.02453376806304844 0.4300726846037286
		outer loop
			vertex -37.87519073486328 21.867252349853516 -2.3333332538604736
			vertex -40.134578704833984 23.171710968017578 -7
			vertex -37.102867126464844 -6.542236804962158 -2.3333332538604736
		endloop
	endfacet
	facet normal -0.8753786713252829 -0.013418661995595148 0.48325161282610385
		outer loop
			vertex -40.134578704833984 23.171710968017578 -7
			vertex -39.672149658203125 -6.995270252227783 -7
			vertex -37.102867126464844 -6.542236804962158 -2.3333332538604736
		endloop
	endfacet
	facet normal -0.854451774809182 -0.1788186260492251 0.48778690378412815
		outer loop
			vertex -30.426128387451172 -5.364947319030762 7
			vertex -32.99541091918945 -5.817981243133545 2.3333332538604736
			vertex -25.251062393188477 -30.09304428100586 7
		endloop
	endfacet
	facet normal -0.8896986968254048 -0.20545837658859975 0.4077046533420408
		outer loop
			vertex -32.99541091918945 -5.817981243133545 2.3333332538604736
			vertex -26.92803955078125 -32.09158706665039 2.3333332538604736
			vertex -25.251062393188477 -30.09304428100586 7
		endloop
	endfacet
	facet normal -0.7269313055151385 -0.16787045598188752 0.6658756543608496
		outer loop
			vertex -32.99541091918945 -5.817981243133545 2.3333332538604736
			vertex -37.102867126464844 -6.542236804962158 -2.3333332538604736
			vertex -26.92803955078125 -32.09158706665039 2.3333332538604736
		endloop
	endfacet
	facet normal -0.7820731761415812 -0.20389223468167547 0.58888836276185
		outer loop
			vertex -37.102867126464844 -6.542236804962158 -2.3333332538604736
			vertex -29.608993530273438 -35.286624908447266 -2.3333332538604736
			vertex -26.92803955078125 -32.09158706665039 2.3333332538604736
		endloop
	endfacet
	facet normal -0.8452767780731695 -0.22036987901329702 0.48676923164257924
		outer loop
			vertex -37.102867126464844 -6.542236804962158 -2.3333332538604736
			vertex -39.672149658203125 -6.995270252227783 -7
			vertex -29.608993530273438 -35.286624908447266 -2.3333332538604736
		endloop
	endfacet
	facet normal -0.8753550441944549 -0.2423541515016394 0.41835154099542216
		outer loop
			vertex -39.672149658203125 -6.995270252227783 -7
			vertex -31.285972595214844 -37.2851676940918 -7
			vertex -29.608993530273438 -35.286624908447266 -2.3333332538604736
		endloop
	endfacet
	facet normal -0.23383968142502223 -0.860528085434601 0.4525598497097423
		outer loop
			vertex -25.251062393188477 -30.09304428100586 7
			vertex -26.92803955078125 -32.09158706665039 2.3333332538604736
			vertex -9.051306829965886e-15 -36.95476150512695 7
		endloop
	endfacet
	facet normal -0.23539769561045043 -0.8483298564088698 0.474261931454124
		outer loop
			vertex -26.92803955078125 -32.09158706665039 2.3333332538604736
			vertex -9.690306791308636e-15 -39.56367874145508 2.3333332538604736
			vertex -9.051306829965886e-15 -36.95476150512695 7
		endloop
	endfacet
	facet normal -0.2074335569475429 -0.7475522609656249 0.6309809320235223
		outer loop
			vertex -26.92803955078125 -32.09158706665039 2.3333332538604736
			vertex -29.608993530273438 -35.286624908447266 -2.3333332538604736
			vertex -9.690306791308636e-15 -39.56367874145508 2.3333332538604736
		endloop
	endfacet
	facet normal -0.20807654360540592 -0.7292879616715509 0.6517999853959666
		outer loop
			vertex -29.608993530273438 -35.286624908447266 -2.3333332538604736
			vertex -1.0711864101081107e-14 -43.73450469970703 -2.3333332538604736
			vertex -9.690306791308636e-15 -39.56367874145508 2.3333332538604736
		endloop
	endfacet
	facet normal -0.2443733470913733 -0.8565047126363926 0.4546221997032367
		outer loop
			vertex -29.608993530273438 -35.286624908447266 -2.3333332538604736
			vertex -31.285972595214844 -37.2851676940918 -7
			vertex -1.0711864101081107e-14 -43.73450469970703 -2.3333332538604736
		endloop
	endfacet
	facet normal -0.24501614097272342 -0.8462526327160089 0.4730999601395655
		outer loop
			vertex -31.285972595214844 -37.2851676940918 -7
			vertex -1.1350864062423856e-14 -46.34341812133789 -7
			vertex -1.0711864101081107e-14 -43.73450469970703 -2.3333332538604736
		endloop
	endfacet
	facet normal 0 0 1
		outer loop
			vertex 2.0251761557879902e-15 -33.07363510131836 7
			vertex 2.2628267074914716e-15 -36.95476150512695 7
			vertex 17.364503860473633 -20.694210052490234 7
		endloop
	endfacet
	facet normal 0 0 1
		outer loop
			vertex 2.2628267074914716e-15 -36.95476150512695 7
			vertex 19.85924530029297 -23.667327880859375 7
			vertex 17.364503860473633 -20.694210052490234 7
		endloop
	endfacet
	facet normal 0 0 1
		outer loop
			vertex 17.364503860473633 -20.694210052490234 7
			vertex 19.85924530029297 -23.667327880859375 7
			vertex 34.86470031738281 -6.147587776184082 7
		endloop
	endfacet
	facet normal 0 0 1
		outer loop
			vertex 19.85924530029297 -23.667327880859375 7
			vertex 38.68687057495117 -6.821538925170898 7
			vertex 34.86470031738281 -6.147587776184082 7
		endloop
	endfacet
	facet normal 0 0 1
		outer loop
			vertex 34.86470031738281 -6.147587776184082 7
			vertex 38.68687057495117 -6.821538925170898 7
			vertex 28.642606735229492 16.53681755065918 7
		endloop
	endfacet
	facet normal 0 0 1
		outer loop
			vertex 38.68687057495117 -6.821538925170898 7
			vertex 32.003761291503906 18.477380752563477 7
			vertex 28.642606735229492 16.53681755065918 7
		endloop
	endfacet
	facet normal 0 0 1
		outer loop
			vertex 28.642606735229492 16.53681755065918 7
			vertex 32.003761291503906 18.477380752563477 7
			vertex 9.239459037780762 25.38520622253418 7
		endloop
	endfacet
	facet normal 0 0 1
		outer loop
			vertex 32.003761291503906 18.477380752563477 7
			vertex 10.566883087158203 29.03227424621582 7
			vertex 9.239459037780762 25.38520622253418 7
		endloop
	endfacet
	facet normal 0 0 1
		outer loop
			vertex 9.239459037780762 25.38520622253418 7
			vertex 10.566883087158203 29.03227424621582 7
			vertex -12.10838508605957 33.267513275146484 7
		endloop
	endfacet
	facet normal 0 0 1
		outer loop
			vertex 10.566883087158203 29.03227424621582 7
			vertex -13.435808181762695 36.914581298828125 7
			vertex -12.10838508605957 33.267513275146484 7
		endloop
	endfacet
	facet normal 0 0 1
		outer loop
			vertex -12.10838508605957 33.267513275146484 7
			vertex -13.435808181762695 36.914581298828125 7
			vertex -28.642610549926758 16.536819458007812 7
		endloop
	endfacet
	facet normal 0 0 1
		outer loop
			vertex -13.435808181762695 36.914581298828125 7
			vertex -32.00376510620117 18.477380752563477 7
			vertex -28.642610549926758 16.536819458007812 7
		endloop
	endfacet
	facet normal 0 0 1
		outer loop
			vertex -28.642610549926758 16.536819458007812 7
			vertex -32.00376510620117 18.477380752563477 7
			vertex -26.60396385192871 -4.6909966468811035 7
		endloop
	endfacet
	facet normal 0 0 1
		outer loop
			vertex -32.00376510620117 18.477380752563477 7
			vertex -30.426128387451172 -5.364947319030762 7
			vertex -26.60396385192871 -4.6909966468811035 7
		endloop
	endfacet
	facet normal 0 0 1
		outer loop
			vertex -26.60396385192871 -4.6909966468811035 7
			vertex -30.426128387451172 -5.364947319030762 7
			vertex -22.756319046020508 -27.119924545288086 7
		endloop
	endfacet
	facet normal 0 0 1
		outer loop
			vertex -30.426128387451172 -5.364947319030762 7
			vertex -25.251062393188477 -30.09304428100586 7
			vertex -22.756319046020508 -27.119924545288086 7
		endloop
	endfacet
	facet normal 0 0 1
		outer loop
			vertex -22.756319046020508 -27.119924545288086 7
			vertex -25.251062393188477 -30.09304428100586 7
			vertex 2.0251761557879902e-15 -33.07363510131836 7
		endloop
	endfacet
	facet normal 0 0 1
		outer loop
			vertex -25.251062393188477 -30.09304428100586 7
			vertex 2.2628267074914716e-15 -36.95476150512695 7
			vertex 2.0251761557879902e-15 -33.07363510131836 7
		endloop
	endfacet
	facet normal 0 0 1
		outer loop
			vertex 2.2031473071267753e-15 -35.980125427246094 -4.900000095367432
			vertex 19.232759475708008 -22.920711517333984 -4.900000095367432
			vertex 0 1.8198721408843994 -4.900000095367432
		endloop
	endfacet
	facet normal 0 0 1
		outer loop
			vertex 19.232759475708008 -22.920711517333984 -4.900000095367432
			vertex 37.72704315185547 -6.6522955894470215 -4.900000095367432
			vertex 0 1.8198721408843994 -4.900000095367432
		endloop
	endfacet
	facet normal 0 0 1
		outer loop
			vertex 37.72704315185547 -6.6522955894470215 -4.900000095367432
			vertex 31.159704208374023 17.99006462097168 -4.900000095367432
			vertex 0 1.8198721408843994 -4.900000095367432
		endloop
	endfacet
	facet normal 0 0 1
		outer loop
			vertex 31.159704208374023 17.99006462097168 -4.900000095367432
			vertex 10.233538627624512 28.116416931152344 -4.900000095367432
			vertex 0 1.8198721408843994 -4.900000095367432
		endloop
	endfacet
	facet normal 0 0 1
		outer loop
			vertex 10.233538627624512 28.116416931152344 -4.900000095367432
			vertex -13.10246467590332 35.99872589111328 -4.900000095367432
			vertex 0 1.8198721408843994 -4.900000095367432
		endloop
	endfacet
	facet normal 0 0 1
		outer loop
			vertex -13.10246467590332 35.99872589111328 -4.900000095367432
			vertex -31.159704208374023 17.990062713623047 -4.900000095367432
			vertex 0 1.8198721408843994 -4.900000095367432
		endloop
	endfacet
	facet normal 0 0 1
		outer loop
			vertex -31.159704208374023 17.990062713623047 -4.900000095367432
			vertex -29.46630096435547 -5.195703506469727 -4.900000095367432
			vertex 0 1.8198721408843994 -4.900000095367432
		endloop
	endfacet
	facet normal 0 0 1
		outer loop
			vertex -29.46630096435547 -5.195703506469727 -4.900000095367432
			vertex -24.62457847595215 -29.3464298248291 -4.900000095367432
			vertex 0 1.8198721408843994 -4.900000095367432
		endloop
	endfacet
	facet normal 0 0 1
		outer loop
			vertex -24.62457847595215 -29.3464298248291 -4.900000095367432
			vertex 2.2031473071267753e-15 -35.980125427246094 -4.900000095367432
			vertex 0 1.8198721408843994 -4.900000095367432
		endloop
	endfacet
	facet normal 0 0 -1
		outer loop
			vertex 2.837716015605964e-15 -46.34341812133789 -7
			vertex -31.285972595214844 -37.2851676940918 -7
			vertex 0 -4.343419075012207 -7
		endloop
	endfacet
	facet normal 0 0 -1
		outer loop
			vertex -31.285972595214844 -37.2851676940918 -7
			vertex -39.672149658203125 -6.995270252227783 -7
			vertex 0 -4.343419075012207 -7
		endloop
	endfacet
	facet normal 0 0 -1
		outer loop
			vertex -39.672149658203125 -6.995270252227783 -7
			vertex -40.134578704833984 23.171710968017578 -7
			vertex 0 -4.343419075012207 -7
		endloop
	endfacet
	facet normal 0 0 -1
		outer loop
			vertex -40.134578704833984 23.171710968017578 -7
			vertex -16.64691925048828 45.73703384399414 -7
			vertex 0 -4.343419075012207 -7
		endloop
	endfacet
	facet normal 0 0 -1
		outer loop
			vertex -16.64691925048828 45.73703384399414 -7
			vertex 13.777993202209473 37.8547248840332 -7
			vertex 0 -4.343419075012207 -7
		endloop
	endfacet
	facet normal 0 0 -1
		outer loop
			vertex 13.777993202209473 37.8547248840332 -7
			vertex 40.13457489013672 23.171709060668945 -7
			vertex 0 -4.343419075012207 -7
		endloop
	endfacet
	facet normal 0 0 -1
		outer loop
			vertex 40.13457489013672 23.171709060668945 -7
			vertex 47.932891845703125 -8.451862335205078 -7
			vertex 0 -4.343419075012207 -7
		endloop
	endfacet
	facet normal 0 0 -1
		outer loop
			vertex 47.932891845703125 -8.451862335205078 -7
			vertex 25.89415740966797 -30.859455108642578 -7
			vertex 0 -4.343419075012207 -7
		endloop
	endfacet
	facet normal 0 0 -1
		outer loop
			vertex 25.89415740966797 -30.859455108642578 -7
			vertex 2.837716015605964e-15 -46.34341812133789 -7
			vertex 0 -4.343419075012207 -7
		endloop
	endfacet
endsolid exported
